<?xml version="1.0" encoding="iso-8859-1"?>
<!-- Generator: Adobe Illustrator 19.0.0, SVG Export Plug-In . SVG Version: 6.00 Build 0)  -->
<svg version="1.1" id="Capa_1" xmlns="http://www.w3.org/2000/svg" xmlns:xlink="http://www.w3.org/1999/xlink" x="0px" y="0px"
	 viewBox="0 0 512 512" style="enable-background:new 0 0 512 512;" xml:space="preserve">
<path style="fill:#134CF4;" d="M512,256c0,141.385-114.615,256-256,256c-36.749,0-71.69-7.743-103.267-21.692
	c-52.82-23.301-96.266-63.948-123.141-114.719C10.7,339.895,0,299.196,0,256c0-44.074,11.139-85.556,30.751-121.762
	c19.184-35.412,46.477-65.787,79.381-88.639C151.51,16.844,201.78,0,256,0s104.49,16.844,145.868,45.599
	c32.904,22.852,60.186,53.217,79.36,88.618C500.861,170.433,512,211.916,512,256z"/>
<g>
	<path style="fill:#F0EFEB;" d="M481.228,134.217c-6.719-42.757-38.264-77.385-79.36-88.618c-9.206-2.518-18.892-3.866-28.881-3.866
		c-60.426,0-109.589,49.152-109.589,109.578S312.56,260.89,372.987,260.89c60.416,0,109.578-49.152,109.578-109.578
		C482.565,145.492,482.105,139.786,481.228,134.217z M372.987,227.453c-41.994,0-76.152-34.158-76.152-76.142
		s34.158-76.142,76.152-76.142c41.984,0,76.142,34.158,76.142,76.142S414.971,227.453,372.987,227.453z"/>
	<path style="fill:#F0EFEB;" d="M139.013,272.008c-58.41,0-106.297,45.944-109.422,103.581
		c26.875,50.772,70.322,91.418,123.141,114.719c53.969-6.77,95.859-52.945,95.859-108.722
		C248.592,321.17,199.429,272.008,139.013,272.008z M139.013,457.738c-41.994,0-76.152-34.158-76.152-76.152
		c0-41.984,34.158-76.142,76.152-76.142c41.984,0,76.142,34.158,76.142,76.142C215.155,423.581,180.997,457.738,139.013,457.738z"/>
	<path style="fill:#F0EFEB;" d="M217.704,75.17h30.584V41.733H139.013c-9.989,0-19.675,1.348-28.881,3.866
		C69.026,56.832,37.47,91.47,30.751,134.238c-0.878,5.559-1.327,11.264-1.327,17.074c0,60.426,49.162,109.578,109.589,109.578
		c60.416,0,109.578-49.152,109.578-109.578C248.592,121.752,236.805,94.898,217.704,75.17z M139.013,227.453
		c-41.994,0-76.152-34.158-76.152-76.142S97.019,75.17,139.013,75.17c41.984,0,76.142,34.158,76.142,76.142
		S180.997,227.453,139.013,227.453z"/>
</g>
<g>
</g>
<g>
</g>
<g>
</g>
<g>
</g>
<g>
</g>
<g>
</g>
<g>
</g>
<g>
</g>
<g>
</g>
<g>
</g>
<g>
</g>
<g>
</g>
<g>
</g>
<g>
</g>
<g>
</g>
</svg>
